<?xml version="1.0" encoding="UTF-8" standalone="no"?>
<svg
   xmlns:dc="http://purl.org/dc/elements/1.1/"
   xmlns:cc="http://creativecommons.org/ns#"
   xmlns:rdf="http://www.w3.org/1999/02/22-rdf-syntax-ns#"
   xmlns:svg="http://www.w3.org/2000/svg"
   xmlns="http://www.w3.org/2000/svg"
   viewBox="0 0 1600 1066.6667"
   height="1066.6667"
   width="1600"
   xml:space="preserve"
   id="svg2"
   version="1.1"><metadata
     id="metadata8"><rdf:RDF><cc:Work
         rdf:about=""><dc:format>image/svg+xml</dc:format><dc:type
           rdf:resource="http://purl.org/dc/dcmitype/StillImage" /><dc:title></dc:title></cc:Work></rdf:RDF></metadata><defs
     id="defs6"><pattern
       id="pattern34"
       height="175.091"
       width="108"
       y="0"
       x="0"
       patternUnits="userSpaceOnUse"
       patternTransform="translate(92,800)"><g
         id="g16"
         transform="translate(119.1317,36.09)"><path
           id="path14"
           style="fill:#ffff77;fill-opacity:1;fill-rule:nonzero;stroke:none"
           d="m 0,0 -22.263,-36.094 8.062,0 -8.062,-36.093 22.263,36.093 -8.063,0 L 0,0 Z" /></g><g
         id="g20"
         transform="translate(11.1317,36.09)"><path
           id="path18"
           style="fill:#ffff77;fill-opacity:1;fill-rule:nonzero;stroke:none"
           d="m 0,0 -22.263,-36.094 8.062,0 -8.062,-36.093 22.263,36.093 -8.063,0 L 0,0 Z" /></g><g
         id="g24"
         transform="translate(119.1317,211.1808)"><path
           id="path22"
           style="fill:#ffff77;fill-opacity:1;fill-rule:nonzero;stroke:none"
           d="m 0,0 -22.263,-36.094 8.062,0 -8.062,-36.093 22.263,36.093 -8.063,0 L 0,0 Z" /></g><g
         id="g28"
         transform="translate(65.1317,123.6354)"><path
           id="path26"
           style="fill:#ffff77;fill-opacity:1;fill-rule:nonzero;stroke:none"
           d="m 0,0 -22.263,-36.094 8.062,0 -8.062,-36.093 22.263,36.093 -8.063,0 L 0,0 Z" /></g><g
         id="g32"
         transform="translate(11.1317,211.1808)"><path
           id="path30"
           style="fill:#ffff77;fill-opacity:1;fill-rule:nonzero;stroke:none"
           d="m 0,0 -22.263,-36.094 8.062,0 -8.062,-36.093 22.263,36.093 -8.063,0 L 0,0 Z" /></g></pattern><clipPath
       id="clipPath88"
       clipPathUnits="userSpaceOnUse"><path
         id="path86"
         d="M 0,800 H 1200 V 0 H 0 Z" /></clipPath><clipPath
       id="clipPath254"
       clipPathUnits="userSpaceOnUse"><path
         id="path252"
         d="M 0,800 H 1200 V 0 H 0 Z" /></clipPath><clipPath
       id="clipPath286"
       clipPathUnits="userSpaceOnUse"><path
         id="path284"
         d="M 0,800 H 1200 V 0 H 0 Z" /></clipPath></defs><g
     transform="matrix(1.3333333,0,0,-1.3333333,0,1066.6667)"
     id="g10"><path
       id="path38"
       style="fill:#d40000;fill-opacity:1;fill-rule:nonzero;stroke:none;stroke-width:1.22246993"
       d="M 351.89,631.901 H 848.111 V 800.71362 H 351.89 Z" /><g
       style="fill:#483e37"
       transform="translate(846.4081,652.1802)"
       id="g40"><path
         id="path42"
         style="fill:#483e37;fill-opacity:1;fill-rule:nonzero;stroke:none"
         d="m 0,0 h -492.816 l 41.803,-96.68 h 409.21 z" /></g><g
       style="fill:#241f1c"
       transform="translate(813.4922,258.935)"
       id="g44"><path
         id="path46"
         style="fill:#241f1c;fill-opacity:1;fill-rule:nonzero;stroke:none"
         d="m 0,0 h -426.984 l 3.071,316.565 H -3.071 Z" /></g><g
       style="fill:#483737"
       transform="translate(387.7137,277)"
       id="g48"><path
         id="path50"
         style="fill:#483737;fill-opacity:1;fill-rule:nonzero;stroke:none"
         d="m 0,0 h 424.573 l 35.824,-120.575 H -35.824 Z" /></g><g
       style="fill:#d40000"
       transform="translate(386.5079,291.0499)"
       id="g52"><path
         id="path54"
         style="fill:#d40000;fill-opacity:1;fill-rule:nonzero;stroke:none"
         d="m 0,0 -11.217,-14.05 -43.24,-99.791 12.113,-13.713 17.726,13.713 35.824,99.791 z" /></g><g
       style="fill:#aa0000"
       transform="translate(380.8773,587.5475)"
       id="g56"><path
         id="path58"
         style="fill:#aa0000;fill-opacity:1;fill-rule:nonzero;stroke:none"
         d="m 0,0 -2.677,-12.048 -2.91,-298.5 h 22.423 l 2.911,298.5 z" /></g><g
       style="fill:#ff0000"
       transform="translate(824.7095,277)"
       id="g60"><path
         id="path62"
         style="fill:#ff0000;fill-opacity:1;fill-rule:nonzero;stroke:none"
         d="M 0,0 -11.217,12.776 -22.423,0 13.401,-99.791 28.32,-114.112 43.24,-99.791 Z" /></g><g
       style="fill:#aa0000"
       transform="translate(821.7994,575.5)"
       id="g64"><path
         id="path66"
         style="fill:#aa0000;fill-opacity:1;fill-rule:nonzero;stroke:none"
         d="M 0,0 -3.337,12.048 -22.423,0 l 2.91,-298.5 H 2.91 Z" /></g><g
       style="fill:#ff5555"
       transform="translate(853.2075,665.5945)"
       id="g68"><path
         id="path70"
         style="fill:#800000;fill-opacity:1;fill-rule:nonzero;stroke:none"
         d="m 0,0 -13.097,-13.414 -40.734,-76.681 h 22.423 l 40.734,76.681 z" /></g><path
       id="path72"
       style="fill:#550000;fill-opacity:1;fill-rule:nonzero;stroke:none;stroke-width:1.26594198"
       d="m 862.534,652.18 h -22.423 v 148.53462 h 22.423 z" /><g
       style="fill:#ff5555"
       transform="translate(359.8895,652.1802)"
       id="g74"><path
         id="path76"
         style="fill:#800000;fill-opacity:1;fill-rule:nonzero;stroke:none"
         d="M 0,0 -14.538,7.602 -22.423,0 18.311,-76.68 h 22.423 z" /></g><path
       id="path78"
       style="fill:#550000;fill-opacity:1;fill-rule:nonzero;stroke:none;stroke-width:1.26594198"
       d="m 337.466,652.18 h 22.423 v 148.53462 h -22.423 z" /><path
       id="path80"
       style="fill:#241c1c;fill-opacity:1;fill-rule:nonzero;stroke:none"
       d="M 351.889,0 H 848.11 V 177.209 H 351.889 Z" /><g
       id="g84"
       clip-path="url(#clipPath88)"><g
         style="fill:#ffffff"
         id="g90"
         transform="translate(779.8117,530.7606)"><path
           d="m 0,0 c -0.134,13.702 -11.279,24.739 -24.982,24.739 h -309.659 c -13.703,0 -24.848,-11.037 -24.982,-24.739 l -2.033,-208.534 c -0.136,-13.892 11.089,-25.227 24.982,-25.227 h 313.725 c 13.893,0 25.117,11.335 24.982,25.227 z"
           style="fill:#ffffff;fill-opacity:1;fill-rule:nonzero;stroke:none"
           id="path92" /></g><g
         id="g94"
         transform="translate(514.0833,208.0163)"><path
           d="m 0,0 c 0,-5.939 -12.108,-10.753 -27.045,-10.753 -14.936,0 -27.044,4.814 -27.044,10.753 V 7 H 0 Z"
           style="fill:#000000;fill-opacity:1;fill-rule:nonzero;stroke:none"
           id="path96" /></g><g
         id="g98"
         transform="translate(514.0833,214.0163)"><path
           d="m 0,0 c 0,-5.939 -12.108,-10.753 -27.045,-10.753 -14.936,0 -27.044,4.814 -27.044,10.753 V 7 H 0 Z"
           style="fill:#800000;fill-opacity:1;fill-rule:nonzero;stroke:none"
           id="path100" /></g><g
         id="g102"
         transform="translate(514.0833,221.0163)"><path
           d="m 0,0 c 0,-5.939 -12.108,-10.753 -27.045,-10.753 -14.936,0 -27.044,4.814 -27.044,10.753 0,5.939 12.108,10.753 27.044,10.753 C -12.108,10.753 0,5.939 0,0"
           style="fill:#d40000;fill-opacity:1;fill-rule:nonzero;stroke:none"
           id="path104" /></g><path
         d="m 491.6,220.466 h -9.124 v 42.925 h 9.124 z"
         style="fill:#ffffff;fill-opacity:1;fill-rule:nonzero;stroke:none"
         id="path106" /><g
         style="fill:#000000"
         id="g108"
         transform="translate(507.8924,273.3214)"><path
           d="m 0,0 c 0,-11.517 -9.337,-20.854 -20.854,-20.854 -11.517,0 -20.853,9.337 -20.853,20.854 0,11.517 9.336,20.854 20.853,20.854 C -9.337,20.854 0,11.517 0,0"
           style="fill:#000000;fill-opacity:1;fill-rule:nonzero;stroke:none"
           id="path110" /></g><g
         id="g112"
         transform="translate(609.0438,240.6844)"><path
           d="M 0,0 C 0,-5.196 -10.595,-9.409 -23.665,-9.409 -36.734,-9.409 -47.33,-5.196 -47.33,0 V 6.125 H 0 Z"
           style="fill:#000000;fill-opacity:1;fill-rule:nonzero;stroke:none"
           id="path114" /></g><g
         style="fill:#808080"
         id="g116"
         transform="translate(609.0438,245.8096)"><path
           d="M 0,0 C 0,-5.196 -10.595,-9.409 -23.665,-9.409 -36.734,-9.409 -47.33,-5.196 -47.33,0 V 6.125 H 0 Z"
           style="fill:#808080;fill-opacity:1;fill-rule:nonzero;stroke:none"
           id="path118" /></g><g
         style="fill:#ffffff"
         id="g120"
         transform="translate(609.0438,251.9348)"><path
           d="m 0,0 c 0,-5.196 -10.595,-9.409 -23.665,-9.409 -13.069,0 -23.665,4.213 -23.665,9.409 0,5.196 10.596,9.409 23.665,9.409 C -10.595,9.409 0,5.196 0,0"
           style="fill:#ffffff;fill-opacity:1;fill-rule:nonzero;stroke:none"
           id="path122" /></g><g
         style="fill:#808080"
         id="g124"
         transform="translate(604.2601,253.6848)"><path
           d="m 0,0 c 0,-4.146 -8.453,-7.507 -18.881,-7.507 -10.428,0 -18.881,3.361 -18.881,7.507 V 5.25 H 0 Z"
           style="fill:#808080;fill-opacity:1;fill-rule:nonzero;stroke:none"
           id="path126" /></g><g
         style="fill:#ffffff"
         id="g128"
         transform="translate(604.2601,258.935)"><path
           d="m 0,0 c 0,-4.146 -8.453,-7.507 -18.881,-7.507 -10.428,0 -18.881,3.361 -18.881,7.507 0,4.146 8.453,7.507 18.881,7.507 C -8.453,7.507 0,4.146 0,0"
           style="fill:#ffffff;fill-opacity:1;fill-rule:nonzero;stroke:none"
           id="path130" /></g><g
         id="g132"
         transform="translate(672.7788,240.6844)"><path
           d="m 0,0 c 0,-5.196 -10.595,-9.409 -23.665,-9.409 -13.069,0 -23.664,4.213 -23.664,9.409 V 6.125 H 0 Z"
           style="fill:#000000;fill-opacity:1;fill-rule:nonzero;stroke:none"
           id="path134" /></g><g
         id="g136"
         transform="translate(672.7788,245.8096)"><path
           d="m 0,0 c 0,-5.196 -10.595,-9.409 -23.665,-9.409 -13.069,0 -23.664,4.213 -23.664,9.409 V 6.125 H 0 Z"
           style="fill:#550000;fill-opacity:1;fill-rule:nonzero;stroke:none"
           id="path138" /></g><g
         id="g140"
         transform="translate(672.7788,251.9348)"><path
           d="m 0,0 c 0,-5.196 -10.595,-9.409 -23.665,-9.409 -13.069,0 -23.664,4.213 -23.664,9.409 0,5.196 10.595,9.409 23.664,9.409 C -10.595,9.409 0,5.196 0,0"
           style="fill:#d40000;fill-opacity:1;fill-rule:nonzero;stroke:none"
           id="path142" /></g><g
         id="g144"
         transform="translate(667.9951,253.6848)"><path
           d="m 0,0 c 0,-4.146 -8.453,-7.507 -18.881,-7.507 -10.428,0 -18.881,3.361 -18.881,7.507 V 5.25 H 0 Z"
           style="fill:#550000;fill-opacity:1;fill-rule:nonzero;stroke:none"
           id="path146" /></g><g
         id="g148"
         transform="translate(667.9951,258.935)"><path
           d="m 0,0 c 0,-4.146 -8.453,-7.507 -18.881,-7.507 -10.428,0 -18.881,3.361 -18.881,7.507 0,4.146 8.453,7.507 18.881,7.507 C -8.453,7.507 0,4.146 0,0"
           style="fill:#d40000;fill-opacity:1;fill-rule:nonzero;stroke:none"
           id="path150" /></g><g
         style="fill:#000000"
         id="g152"
         transform="translate(736.5139,240.6844)"><path
           d="M 0,0 C 0,-5.196 -10.595,-9.409 -23.665,-9.409 -36.734,-9.409 -47.33,-5.196 -47.33,0 V 6.125 H 0 Z"
           style="fill:#000000;fill-opacity:1;fill-rule:nonzero;stroke:none"
           id="path154" /></g><g
         style="fill:#808080"
         id="g156"
         transform="translate(736.5139,245.8096)"><path
           d="M 0,0 C 0,-5.196 -10.595,-9.409 -23.665,-9.409 -36.734,-9.409 -47.33,-5.196 -47.33,0 V 6.125 H 0 Z"
           style="fill:#808080;fill-opacity:1;fill-rule:nonzero;stroke:none"
           id="path158" /></g><g
         style="fill:#ffffff"
         id="g160"
         transform="translate(736.5139,251.9348)"><path
           d="m 0,0 c 0,-5.196 -10.595,-9.409 -23.665,-9.409 -13.069,0 -23.665,4.213 -23.665,9.409 0,5.196 10.596,9.409 23.665,9.409 C -10.595,9.409 0,5.196 0,0"
           style="fill:#ffffff;fill-opacity:1;fill-rule:nonzero;stroke:none"
           id="path162" /></g><g
         style="fill:#808080"
         id="g164"
         transform="translate(731.7301,253.6848)"><path
           d="m 0,0 c 0,-4.146 -8.453,-7.507 -18.881,-7.507 -10.428,0 -18.881,3.361 -18.881,7.507 V 5.25 H 0 Z"
           style="fill:#808080;fill-opacity:1;fill-rule:nonzero;stroke:none"
           id="path166" /></g><g
         style="fill:#ffffff"
         id="g168"
         transform="translate(731.7301,258.935)"><path
           d="m 0,0 c 0,-4.146 -8.453,-7.507 -18.881,-7.507 -10.428,0 -18.881,3.361 -18.881,7.507 0,4.146 8.453,7.507 18.881,7.507 C -8.453,7.507 0,4.146 0,0"
           style="fill:#ffffff;fill-opacity:1;fill-rule:nonzero;stroke:none"
           id="path170" /></g><g
         id="g172"
         transform="translate(643.2481,200.1794)"><path
           d="M 0,0 C 0,-5.196 -10.595,-9.409 -23.665,-9.409 -36.734,-9.409 -47.33,-5.196 -47.33,0 V 6.125 H 0 Z"
           style="fill:#000000;fill-opacity:1;fill-rule:nonzero;stroke:none"
           id="path174" /></g><g
         id="g176"
         transform="translate(643.2481,205.3046)"><path
           d="M 0,0 C 0,-5.196 -10.595,-9.409 -23.665,-9.409 -36.734,-9.409 -47.33,-5.196 -47.33,0 V 6.125 H 0 Z"
           style="fill:#550000;fill-opacity:1;fill-rule:nonzero;stroke:none"
           id="path178" /></g><g
         id="g180"
         transform="translate(643.2481,211.4297)"><path
           d="m 0,0 c 0,-5.196 -10.595,-9.409 -23.665,-9.409 -13.069,0 -23.665,4.213 -23.665,9.409 0,5.196 10.596,9.409 23.665,9.409 C -10.595,9.409 0,5.196 0,0"
           style="fill:#d40000;fill-opacity:1;fill-rule:nonzero;stroke:none"
           id="path182" /></g><g
         id="g184"
         transform="translate(638.4644,213.1798)"><path
           d="m 0,0 c 0,-4.146 -8.453,-7.507 -18.881,-7.507 -10.428,0 -18.881,3.361 -18.881,7.507 V 5.25 H 0 Z"
           style="fill:#550000;fill-opacity:1;fill-rule:nonzero;stroke:none"
           id="path186" /></g><g
         id="g188"
         transform="translate(638.4644,218.4299)"><path
           d="m 0,0 c 0,-4.146 -8.453,-7.507 -18.881,-7.507 -10.428,0 -18.881,3.361 -18.881,7.507 0,4.146 8.453,7.507 18.881,7.507 C -8.453,7.507 0,4.146 0,0"
           style="fill:#d40000;fill-opacity:1;fill-rule:nonzero;stroke:none"
           id="path190" /></g><g
         id="g192"
         transform="translate(706.9831,200.1794)"><path
           d="m 0,0 c 0,-5.196 -10.595,-9.409 -23.665,-9.409 -13.069,0 -23.664,4.213 -23.664,9.409 V 6.125 H 0 Z"
           style="fill:#000000;fill-opacity:1;fill-rule:nonzero;stroke:none"
           id="path194" /></g><g
         style="fill:#808080"
         id="g196"
         transform="translate(706.9831,205.3046)"><path
           d="m 0,0 c 0,-5.196 -10.595,-9.409 -23.665,-9.409 -13.069,0 -23.664,4.213 -23.664,9.409 V 6.125 H 0 Z"
           style="fill:#808080;fill-opacity:1;fill-rule:nonzero;stroke:none"
           id="path198" /></g><g
         style="fill:#ffffff"
         id="g200"
         transform="translate(706.9831,211.4297)"><path
           d="m 0,0 c 0,-5.196 -10.595,-9.409 -23.665,-9.409 -13.069,0 -23.664,4.213 -23.664,9.409 0,5.196 10.595,9.409 23.664,9.409 C -10.595,9.409 0,5.196 0,0"
           style="fill:#ffffff;fill-opacity:1;fill-rule:nonzero;stroke:none"
           id="path202" /></g><g
         style="fill:#808080"
         id="g204"
         transform="translate(702.1993,213.1798)"><path
           d="m 0,0 c 0,-4.146 -8.453,-7.507 -18.881,-7.507 -10.428,0 -18.881,3.361 -18.881,7.507 V 5.25 H 0 Z"
           style="fill:#808080;fill-opacity:1;fill-rule:nonzero;stroke:none"
           id="path206" /></g><g
         style="fill:#ffffff"
         id="g208"
         transform="translate(702.1993,218.4299)"><path
           d="m 0,0 c 0,-4.146 -8.453,-7.507 -18.881,-7.507 -10.428,0 -18.881,3.361 -18.881,7.507 0,4.146 8.453,7.507 18.881,7.507 C -8.453,7.507 0,4.146 0,0"
           style="fill:#ffffff;fill-opacity:1;fill-rule:nonzero;stroke:none"
           id="path210" /></g><g
         id="g212"
         transform="translate(770.7181,200.1794)"><path
           d="M 0,0 C 0,-5.196 -10.595,-9.409 -23.665,-9.409 -36.734,-9.409 -47.33,-5.196 -47.33,0 V 6.125 H 0 Z"
           style="fill:#000000;fill-opacity:1;fill-rule:nonzero;stroke:none"
           id="path214" /></g><g
         id="g216"
         transform="translate(770.7181,205.3046)"><path
           d="M 0,0 C 0,-5.196 -10.595,-9.409 -23.665,-9.409 -36.734,-9.409 -47.33,-5.196 -47.33,0 V 6.125 H 0 Z"
           style="fill:#550000;fill-opacity:1;fill-rule:nonzero;stroke:none"
           id="path218" /></g><g
         id="g220"
         transform="translate(770.7181,211.4297)"><path
           d="m 0,0 c 0,-5.196 -10.595,-9.409 -23.665,-9.409 -13.069,0 -23.665,4.213 -23.665,9.409 0,5.196 10.596,9.409 23.665,9.409 C -10.595,9.409 0,5.196 0,0"
           style="fill:#d40000;fill-opacity:1;fill-rule:nonzero;stroke:none"
           id="path222" /></g><g
         id="g224"
         transform="translate(765.9344,213.1798)"><path
           d="m 0,0 c 0,-4.146 -8.453,-7.507 -18.881,-7.507 -10.428,0 -18.881,3.361 -18.881,7.507 V 5.25 H 0 Z"
           style="fill:#550000;fill-opacity:1;fill-rule:nonzero;stroke:none"
           id="path226" /></g><g
         id="g228"
         transform="translate(765.9344,218.4299)"><path
           d="m 0,0 c 0,-4.146 -8.453,-7.507 -18.881,-7.507 -10.428,0 -18.881,3.361 -18.881,7.507 0,4.146 8.453,7.507 18.881,7.507 C -8.453,7.507 0,4.146 0,0"
           style="fill:#d40000;fill-opacity:1;fill-rule:nonzero;stroke:none"
           id="path230" /></g><path
         d="M 867.949,0 H 838.11 v 177.209 h 29.839 z"
         style="fill:#800000;fill-opacity:1;fill-rule:nonzero;stroke:none"
         id="path232" /><g
         id="g234"
         transform="translate(332.051)"><path
           d="M 0,0 H 29.839 V 177.209 H 0 Z"
           style="fill:#800000;fill-opacity:1;fill-rule:nonzero;stroke:none"
           id="path236" /></g><g
         id="g238"
         transform="translate(637.3624,155.2921)"><path
           d="m 0,0 h -74.725 c -4.557,0 -8.252,-3.695 -8.252,-8.252 v -85.43 c 0,-4.558 3.695,-8.253 8.252,-8.253 H 0 c 4.558,0 8.252,3.695 8.252,8.253 v 85.43 C 8.252,-3.695 4.558,0 0,0"
           style="fill:#333333;fill-opacity:1;fill-rule:nonzero;stroke:none"
           id="path240" /></g></g><g
       id="g248"><g
         clip-path="url(#clipPath254)"
         id="g250"><g
           transform="translate(568.1245,144.7405)"
           id="g256"><path
             id="path258"
             style="fill:#b5b5b5;fill-opacity:1;fill-rule:nonzero;stroke:none"
             d="m 0,0 c 0,-1.765 -1.431,-3.196 -3.196,-3.196 -1.765,0 -3.195,1.431 -3.195,3.196 0,1.765 1.43,3.196 3.195,3.196 C -1.431,3.196 0,1.765 0,0" /></g><g
           transform="translate(631.8755,144.7405)"
           id="g260"><path
             id="path262"
             style="fill:#b5b5b5;fill-opacity:1;fill-rule:nonzero;stroke:none"
             d="m 0,0 c 0,-1.765 1.431,-3.196 3.196,-3.196 1.765,0 3.195,1.431 3.195,3.196 0,1.765 -1.43,3.196 -3.195,3.196 C 1.431,3.196 0,1.765 0,0" /></g><g
           transform="translate(568.1245,63.9091)"
           id="g264"><path
             id="path266"
             style="fill:#b5b5b5;fill-opacity:1;fill-rule:nonzero;stroke:none"
             d="m 0,0 c 0,1.765 -1.431,3.196 -3.196,3.196 -1.765,0 -3.195,-1.431 -3.195,-3.196 0,-1.765 1.43,-3.196 3.195,-3.196 C -1.431,-3.196 0,-1.765 0,0" /></g><g
           transform="translate(631.8755,63.9091)"
           id="g268"><path
             id="path270"
             style="fill:#b5b5b5;fill-opacity:1;fill-rule:nonzero;stroke:none"
             d="M 0,0 C 0,1.765 1.431,3.196 3.196,3.196 4.961,3.196 6.391,1.765 6.391,0 6.391,-1.765 4.961,-3.196 3.196,-3.196 1.431,-3.196 0,-1.765 0,0" /></g><path
           id="path272"
           style="fill:#b5b5b5;fill-opacity:1;fill-rule:nonzero;stroke:none"
           d="m 613.347,87.982 h -26.693 v 32.685 h 26.693 z" /><path
           id="path274"
           style="fill:#333333;fill-opacity:1;fill-rule:nonzero;stroke:none"
           d="m 596.996,94.212 h -4.439 v 20.225 h 4.439 z" /></g></g><flowRoot
       transform="matrix(0.75000002,0,0,-0.75000002,-165.69314,850.2665)"
       style="font-style:normal;font-weight:normal;font-size:40px;line-height:1.25;font-family:sans-serif;letter-spacing:0px;word-spacing:0px;fill:#ffffff;fill-opacity:1;stroke:none"
       id="flowRoot489"
       xml:space="preserve"><flowRegion
         style="fill:#ffffff"
         id="flowRegion491"><rect
           style="fill:#ffffff"
           y="73.51606"
           x="479.85199"
           height="235.28055"
           width="1069.7327"
           id="rect493" /></flowRegion><flowPara
         style="font-style:normal;font-variant:normal;font-weight:normal;font-stretch:normal;font-size:74.66666412px;font-family:Silkscreen;-inkscape-font-specification:Silkscreen;text-align:center;text-anchor:middle;fill:#ffffff"
         id="flowPara495">DO IT MACHINE </flowPara><flowPara
         style="font-size:64px"
         id="flowPara511"><flowSpan
   id="flowSpan513"
   style="font-style:normal;font-variant:normal;font-weight:normal;font-stretch:normal;font-size:74.66666412px;font-family:Silkscreen;-inkscape-font-specification:Silkscreen;text-align:center;text-anchor:middle;fill:#ffffff">by EA</flowSpan> </flowPara></flowRoot></g></svg>